<svg xmlns="http://www.w3.org/2000/svg" viewBox="0 0 200 200">
  <defs>
    <linearGradient id="grad2" x1="0%" y1="0%" x2="100%" y2="100%">
      <stop offset="0%" style="stop-color:#2563eb;stop-opacity:1" />
      <stop offset="100%" style="stop-color:#06b6d4;stop-opacity:1" />
    </linearGradient>
  </defs>
  
  <rect width="200" height="200" fill="#ffffff" rx="40" stroke="#e2e8f0" stroke-width="2"/>
  
  <g transform="translate(100, 100)">
     <!-- Hexagon Shape -->
     <path d="M0 -70 L60.6 -35 L60.6 35 L0 70 L-60.6 35 L-60.6 -35 Z" fill="none" stroke="url(#grad2)" stroke-width="8" stroke-linejoin="round"/>
     
     <!-- Internal Network/Circuit -->
     <circle cx="0" cy="0" r="15" fill="url(#grad2)"/>
     <path d="M0 -55 L0 -25 M47.6 -27.5 L21.6 -12.5 M47.6 27.5 L21.6 12.5 M0 55 L0 25 M-47.6 27.5 L-21.6 12.5 M-47.6 -27.5 L-21.6 -12.5" stroke="#64748b" stroke-width="4" stroke-linecap="round"/>
     
     <!-- Data points -->
     <circle cx="0" cy="-55" r="5" fill="#2563eb"/>
     <circle cx="47.6" cy="-27.5" r="5" fill="#2563eb"/>
     <circle cx="47.6" cy="27.5" r="5" fill="#2563eb"/>
     <circle cx="0" cy="55" r="5" fill="#2563eb"/>
     <circle cx="-47.6" cy="27.5" r="5" fill="#2563eb"/>
     <circle cx="-47.6" cy="-27.5" r="5" fill="#2563eb"/>
  </g>
</svg>
